<?xml version="1.0" encoding="UTF-8" standalone="no"?>
<svg width="250" xmlns="http://www.w3.org/2000/svg" viewBox="0 0 250 250" height="250">
 <metadata>
  <x:xmpmeta x:xmptk="Adobe XMP Core 5.6-c138 79.159824, 2016/09/14-01:09:01        " xmlns:x="adobe:ns:meta/">
   <rdf:RDF xmlns:rdf="http://www.w3.org/1999/02/22-rdf-syntax-ns#">
    <rdf:Description rdf:about=""/>
   </rdf:RDF>
  </x:xmpmeta>
 </metadata>
 <defs>
  <style>.cls-1 {
        fill: #fff;
        fill-rule: evenodd;
        opacity: 0.05;
      }</style>
 </defs>
 <path class="cls-1" d="m158.15 162.21a4.138 4.138 0 0 0 -8.276 0v8.277a4.138 4.138 0 1 0 8.276 0v-8.277zm-4.139 45.524a4.14 4.14 0 0 0 -4.138 4.138v16.554a4.139 4.139 0 1 0 8.277 0v-16.55a4.14 4.14 0 0 0 -4.14 -4.13zm20.694-95.186a4.139 4.139 0 1 0 -8.277 0v8.277a4.139 4.139 0 0 0 8.277 0v-8.27zm-16.555 24.831a4.138 4.138 0 1 0 -8.276 0v8.277a4.138 4.138 0 0 0 8.276 0v-8.277zm0 49.662a4.139 4.139 0 0 0 -8.277 0v8.277a4.139 4.139 0 1 0 8.277 0v-8.277zm16.555-49.662a4.139 4.139 0 0 0 -8.277 0v8.277a4.139 4.139 0 0 0 8.277 0v-8.277zm-33.1-24.82a4.139 4.139 0 0 0 -8.278 0v8.277a4.139 4.139 0 0 0 8.278 0v-8.28zm16.554 0a4.138 4.138 0 1 0 -8.276 0v8.277a4.138 4.138 0 0 0 8.276 0v-8.28zm16.555-41.385v-8.277a4.138 4.138 0 1 0 -8.277 0v8.277a4.138 4.138 0 1 0 8.29 0zm-33.1 66.215a4.139 4.139 0 0 0 -8.278 0v8.277a4.139 4.139 0 0 0 8.278 0v-8.277zm49.664-74.493a4.139 4.139 0 1 0 -8.277 0v8.277a4.139 4.139 0 1 0 8.277 0v-8.276zm-53.8 95.186a4.141 4.141 0 0 0 -4.139 4.138v8.277a4.139 4.139 0 1 0 8.278 0v-8.277a4.141 4.141 0 0 0 -4.14 -4.14zm70.357 28.969a4.139 4.139 0 0 0 -8.277 0v8.277a4.139 4.139 0 1 0 8.277 0v-8.277zm-4.138 20.693a4.14 4.14 0 0 0 -4.139 4.138v16.554a4.139 4.139 0 1 0 8.277 0v-16.55a4.14 4.14 0 0 0 -4.14 -4.13zm16.555-49.662a4.14 4.14 0 0 0 -4.139 4.138v8.277a4.139 4.139 0 1 0 8.277 0v-8.277a4.14 4.14 0 0 0 -4.15 -4.14zm-66.23-82.77a4.14 4.14 0 0 0 4.139 -4.139v-17.461l41.387-10.347v69.197a4.148 4.148 0 0 0 2.686 3.878l30.424 11.406v42.655a4.139 4.139 0 1 0 8.277 0v-45.54a4.148 4.148 0 0 0 -2.686 -3.878l-30.424-11.4v-79.9a4.138 4.138 0 1 0 -8.277 0v5.045l-46.53 11.632a4.137 4.137 0 0 0 -3.133 4.015v20.692a4.14 4.14 0 0 0 4.13 4.136zm70.358 62.078a4.139 4.139 0 0 0 -8.277 0v8.277a4.139 4.139 0 0 0 8.277 0v-8.277zm-16.555 0a4.138 4.138 0 0 0 -8.276 0v8.277a4.138 4.138 0 0 0 8.276 0v-8.277zm-33.109 49.662a4.139 4.139 0 0 0 -8.277 0v8.277a4.139 4.139 0 1 0 8.277 0v-8.277zm33.109-24.831a4.138 4.138 0 0 0 -8.276 0v8.277a4.138 4.138 0 1 0 8.276 0v-8.277zm-37.248 45.524a4.14 4.14 0 0 0 -4.138 4.138v16.554a4.139 4.139 0 1 0 8.277 0v-16.55a4.14 4.14 0 0 0 -4.14 -4.13zm4.139-45.524a4.139 4.139 0 0 0 -8.277 0v8.277a4.139 4.139 0 1 0 8.277 0v-8.277zm12.416 70.355a4.141 4.141 0 0 0 4.139 -4.138v-132.42a4.14 4.14 0 0 0 -3.134 -4.014l-66.23-16.559a4.142 4.142 0 0 0 -5.145 4.014v91.047a4.139 4.139 0 0 0 8.277 0v-85.746l57.942 14.484v129.2a4.141 4.141 0 0 0 4.14 4.14zm-95.196-144.84a4.139 4.139 0 0 0 -8.277 0v8.281a4.139 4.139 0 0 0 8.277 0v-8.281zm0-24.831a4.139 4.139 0 0 0 -8.277 0v8.277a4.139 4.139 0 0 0 8.277 0v-8.277zm-33.11 124.15a4.139 4.139 0 0 0 -8.278 0v8.277a4.139 4.139 0 1 0 8.277 0v-8.277zm-37.248-37.24a4.14 4.14 0 0 0 4.139 -4.138v-20.7h41.385v103.47a4.139 4.139 0 1 0 8.277 0v-107.6a4.14 4.14 0 0 0 -4.138 -4.138h-49.663a4.14 4.14 0 0 0 -4.139 4.138v24.831a4.14 4.14 0 0 0 4.139 4.14zm45.524-62.081v8.281a4.139 4.139 0 0 0 8.277 0v-8.281a4.139 4.139 0 0 0 -8.277 0zm24.834-49.663a4.139 4.139 0 0 0 -8.277 0v8.278a4.139 4.139 0 0 0 8.277 0v-8.278zm-37.249 169.68a4.14 4.14 0 0 0 -4.139 4.138v16.554a4.139 4.139 0 1 0 8.277 0v-16.56a4.139 4.139 0 0 0 -4.138 -4.13zm190.38 33.108h-8.278v-25.43a16.555 16.555 0 1 0 -8.277 0v25.419h-103.46v-16.97a20.694 20.694 0 1 0 -8.278 0v16.972h-91.045v-41.8a20.693 20.693 0 1 0 -8.278 0v41.8h-12.416a4.139 4.139 0 1 0 0 8.277h240.04a4.139 4.139 0 0 0 0 -8.28zm-235.9-62.08a12.416 12.416 0 1 1 12.416 12.416 12.431 12.431 0 0 1 -12.416 -12.42zm99.33 24.83a12.416 12.416 0 1 1 12.41 12.41 12.431 12.431 0 0 1 -12.41 -12.41zm115.88-4.138a8.278 8.278 0 1 1 8.278 8.277 8.285 8.285 0 0 1 -8.28 -8.28zm-190.38 12.41v16.554a4.138 4.138 0 1 0 8.277 0v-16.55a4.138 4.138 0 0 0 -8.277 0zm24.832-74.493a4.139 4.139 0 0 0 -8.277 0v8.277a4.139 4.139 0 0 0 8.277 0v-8.277zm0 24.831a4.139 4.139 0 0 0 -8.277 0v8.277a4.139 4.139 0 1 0 8.277 0v-8.277zm-24.832-24.83v8.277a4.138 4.138 0 0 0 8.277 0v-8.277a4.138 4.138 0 0 0 -8.277 0zm57.941 24.831a4.139 4.139 0 0 0 -8.277 0v8.277a4.139 4.139 0 1 0 8.277 0v-8.277zm16.555-49.662a4.139 4.139 0 1 0 -8.277 0v8.277a4.139 4.139 0 0 0 8.277 0v-8.28zm0-24.831a4.139 4.139 0 1 0 -8.277 0v8.281a4.139 4.139 0 0 0 8.277 0v-8.281zm0 49.662a4.139 4.139 0 0 0 -8.277 0v8.277a4.139 4.139 0 0 0 8.277 0v-8.277zm-4.139 20.693a4.14 4.14 0 0 0 -4.138 4.138v8.277a4.139 4.139 0 1 0 8.277 0v-8.277a4.14 4.14 0 0 0 -4.14 -4.14zm4.139-95.186a4.139 4.139 0 1 0 -8.277 0v8.277a4.139 4.139 0 1 0 8.277 0v-8.273zm-16.556 124.16a4.139 4.139 0 0 0 -8.277 0v8.277a4.139 4.139 0 1 0 8.277 0v-8.277zm-37.249-78.63a4.14 4.14 0 0 0 4.139 -4.138v-30.548l14.266-7.13a4.144 4.144 0 0 0 2.289 -3.7v-34.692l20.693-10.348 20.688 10.348v34.688a4.139 4.139 0 0 0 8.278 0v-37.247a4.143 4.143 0 0 0 -2.289 -3.7l-22.54-11.274v-5.719a4.139 4.139 0 1 0 -8.277 0v5.719l-22.542 11.27a4.142 4.142 0 0 0 -2.289 3.7v34.692l-14.266 7.131a4.144 4.144 0 0 0 -2.289 3.7v33.108a4.139 4.139 0 0 0 4.138 4.14zm37.248 28.97a4.139 4.139 0 0 0 -8.277 0v8.277a4.139 4.139 0 0 0 8.277 0v-8.277zm-4.133 70.36a4.14 4.14 0 0 0 -4.139 4.138v16.554a4.139 4.139 0 1 0 8.277 0v-16.56a4.14 4.14 0 0 0 -4.138 -4.13zm20.693-169.68a4.139 4.139 0 0 0 -8.277 0v8.278a4.139 4.139 0 1 0 8.277 0v-8.282zm-16.556 74.49a4.139 4.139 0 1 0 -8.277 0v8.277a4.139 4.139 0 0 0 8.277 0v-8.28z"/>
</svg>
