<?xml version="1.0" encoding="UTF-8" standalone="no"?>
<svg width="158" xmlns="http://www.w3.org/2000/svg" viewBox="0 0 158 193" height="193">
 <metadata>
  <x:xmpmeta x:xmptk="Adobe XMP Core 5.6-c138 79.159824, 2016/09/14-01:09:01        " xmlns:x="adobe:ns:meta/">
   <rdf:RDF xmlns:rdf="http://www.w3.org/1999/02/22-rdf-syntax-ns#">
    <rdf:Description rdf:about=""/>
   </rdf:RDF>
  </x:xmpmeta>
 </metadata>
 <defs>
  <style>.cls-1 {
        fill: #fff;
        fill-rule: evenodd;
        opacity: 0.04;
      }</style>
 </defs>
 <path id="Forma_1" d="m79.148 92.859a46.351 46.351 0 1 0 -46.371 -46.35 46.413 46.413 0 0 0 46.371 46.35zm0-78.307a31.958 31.958 0 1 1 -31.971 31.958 32 32 0 0 1 31.971 -31.958zm0 92.7a78.269 78.269 0 0 0 -78.2 78.163 7.2 7.2 0 0 0 7.2 7.2h142a7.2 7.2 0 0 0 7.2 -7.2 78.269 78.269 0 0 0 -78.202 -78.16zm-63.393 70.97a63.805 63.805 0 0 1 126.79 0h-126.78z" class="cls-1" data-name="Forma 1"/>
</svg>
