<?xml version="1.0" encoding="UTF-8" standalone="no"?>
<svg width="67" xmlns="http://www.w3.org/2000/svg" viewBox="0 0 67 68" height="68">
 <metadata>
  <x:xmpmeta x:xmptk="Adobe XMP Core 5.6-c138 79.159824, 2016/09/14-01:09:01        " xmlns:x="adobe:ns:meta/">
   <rdf:RDF xmlns:rdf="http://www.w3.org/1999/02/22-rdf-syntax-ns#">
    <rdf:Description rdf:about=""/>
   </rdf:RDF>
  </x:xmpmeta>
 </metadata>
 <defs>
  <style>.cls-1 {
        fill: #58677f;
        fill-rule: evenodd;
      }</style>
 </defs>
 <path id="Forma_1" d="m66.556 34.1a33.256 33.256 0 1 0 -33.256 33.254 33.256 33.256 0 0 0 33.256 -33.254zm-63.488 0a30.232 30.232 0 1 1 30.232 30.231 30.233 30.233 0 0 1 -30.233 -30.231zm31.508 19.193v-19.193h6.334l1-6.361h-7.334v-3.19c0-1.659 0.543-3.244 2.926-3.244h4.762v-6.35h-6.764c-5.684 0-7.235 3.743-7.235 8.931v3.849h-3.9v6.365h3.9v19.193h6.307z" class="cls-1" data-name="Forma 1"/>
</svg>
