<?xml version="1.0" encoding="UTF-8" standalone="no"?>
<svg width="67" xmlns="http://www.w3.org/2000/svg" viewBox="0 0 67 68" height="68">
 <metadata>
  <x:xmpmeta x:xmptk="Adobe XMP Core 5.6-c138 79.159824, 2016/09/14-01:09:01        " xmlns:x="adobe:ns:meta/">
   <rdf:RDF xmlns:rdf="http://www.w3.org/1999/02/22-rdf-syntax-ns#">
    <rdf:Description rdf:about=""/>
   </rdf:RDF>
  </x:xmpmeta>
 </metadata>
 <defs>
  <style>.cls-1 {
        fill: #58677f;
        fill-rule: evenodd;
      }</style>
 </defs>
 <path id="Forma_1" d="m38.387 44.559c0-3.262-1.888-4.871-3.969-6.621l-1.7-1.325a2.584 2.584 0 0 1 -1.228 -2.032 3.326 3.326 0 0 1 1.325 -2.315c1.983-1.561 3.97-3.214 3.97-6.712a7.97 7.97 0 0 0 -3.356 -6.382h2.93l3.023-1.7h-9.741a12.882 12.882 0 0 0 -8.462 2.6 8.494 8.494 0 0 0 -3.023 6.328 7.475 7.475 0 0 0 7.844 7.426c0.474 0 0.992-0.049 1.515-0.094a4.238 4.238 0 0 0 -0.471 1.843 4.958 4.958 0 0 0 1.418 3.213c-2.125 0.142-6.1 0.378-9.027 2.174a6.806 6.806 0 0 0 -3.64 5.769c0 3.5 3.31 6.76 10.164 6.76 8.127 0.001 12.428-4.491 12.428-8.932zm-10.164-12.059c-4.066 0-5.91-5.247-5.91-8.413a5.453 5.453 0 0 1 1.04 -3.5 4.419 4.419 0 0 1 3.311 -1.563c3.924 0 5.956 5.3 5.956 8.7a4.78 4.78 0 0 1 -1.182 3.453 4.852 4.852 0 0 1 -3.215 1.323zm0.048 19c-5.058 0-8.32-2.41-8.32-5.765s3.027-4.489 4.066-4.867a18.945 18.945 0 0 1 4.964 -0.758 7.518 7.518 0 0 1 1.085 0.048c3.595 2.552 5.151 3.828 5.151 6.24 0.002 2.934-2.408 5.107-6.945 5.107zm10.542-16.123h5.119v5.115h2.558v-5.115h5.116v-2.557h-5.116v-5.12h-2.558v5.12h-5.119v2.557zm28.141-1.277a33.256 33.256 0 1 0 -33.254 33.254 33.256 33.256 0 0 0 33.254 -33.254zm-63.488 0a30.232 30.232 0 1 1 30.234 30.231 30.233 30.233 0 0 1 -30.234 -30.231z" class="cls-1" data-name="Forma 1"/>
</svg>
