<?xml version="1.0" encoding="UTF-8" standalone="no"?>
<svg width="67" xmlns="http://www.w3.org/2000/svg" viewBox="0 0 67 68" height="68">
 <metadata>
  <x:xmpmeta x:xmptk="Adobe XMP Core 5.6-c138 79.159824, 2016/09/14-01:09:01        " xmlns:x="adobe:ns:meta/">
   <rdf:RDF xmlns:rdf="http://www.w3.org/1999/02/22-rdf-syntax-ns#">
    <rdf:Description rdf:about=""/>
   </rdf:RDF>
  </x:xmpmeta>
 </metadata>
 <defs>
  <style>.cls-1 {
        fill: #58677f;
        fill-rule: evenodd;
      }</style>
 </defs>
 <path class="cls-1" d="m66.985 34.1a33.256 33.256 0 1 0 -33.255 33.254 33.256 33.256 0 0 0 33.255 -33.254zm-63.485 0a30.232 30.232 0 1 1 30.23 30.231 30.233 30.233 0 0 1 -30.23 -30.231zm22.87-5.839h-5.589a0.554 0.554 0 0 0 -0.508 0.508v17.771a0.554 0.554 0 0 0 0.508 0.508h5.586a0.554 0.554 0 0 0 0.508 -0.508v-17.773a0.554 0.554 0 0 0 -0.508 -0.508zm-2.9-9.141a3.7 3.7 0 1 0 3.7 3.7 3.706 3.706 0 0 0 -3.704 -3.702zm17.063 8.526a6.838 6.838 0 0 0 -5.021 2.138v-1.017a0.554 0.554 0 0 0 -0.512 -0.508h-5.078a0.554 0.554 0 0 0 -0.508 0.508v17.773a0.554 0.554 0 0 0 0.508 0.508h5.586a0.554 0.554 0 0 0 0.508 -0.508v-9.14c0-3.01 0.627-3.917 2.721-3.917 2.28 0 2.357 1.968 2.357 4.425v8.632a0.6 0.6 0 0 0 0.554 0.508h5.6a0.451 0.451 0 0 0 0.452 -0.448v-9.9c0-4.481-0.856-9.056-7.171-9.056z"/>
</svg>
