<?xml version="1.0" encoding="UTF-8" standalone="no"?>
<svg width="68" xmlns="http://www.w3.org/2000/svg" viewBox="0 0 68 68" height="68">
 <metadata>
  <x:xmpmeta x:xmptk="Adobe XMP Core 5.6-c138 79.159824, 2016/09/14-01:09:01        " xmlns:x="adobe:ns:meta/">
   <rdf:RDF xmlns:rdf="http://www.w3.org/1999/02/22-rdf-syntax-ns#">
    <rdf:Description rdf:about=""/>
   </rdf:RDF>
  </x:xmpmeta>
 </metadata>
 <defs>
  <style>.cls-1 {
        fill: #58677f;
        fill-rule: evenodd;
      }</style>
 </defs>
 <path id="Forma_1" d="m48.021 27.486c0-0.336 0-0.668-0.021-1a15.125 15.125 0 0 0 3.667 -3.942 14.1 14.1 0 0 1 -4.22 1.156 7.544 7.544 0 0 0 3.232 -4.221 14.114 14.114 0 0 1 -4.666 1.8 7.3 7.3 0 0 0 -5.362 -2.53 7.423 7.423 0 0 0 -7.351 7.658 8.161 8.161 0 0 0 0.191 1.775 20.688 20.688 0 0 1 -15.147 -8.369 8.242 8.242 0 0 0 2.274 10.5 7.048 7.048 0 0 1 -3.329 -1.019v0.1a7.8 7.8 0 0 0 5.9 7.733 6.946 6.946 0 0 1 -1.935 0.263 6.788 6.788 0 0 1 -1.382 -0.151 7.469 7.469 0 0 0 6.863 5.461 14.18 14.18 0 0 1 -9.124 3.323 14.024 14.024 0 0 1 -1.754 -0.112 19.823 19.823 0 0 0 11.265 3.53c13.511 0.009 20.899-11.751 20.899-21.955zm19 6.612a33.256 33.256 0 1 0 -33.26 33.256 33.256 33.256 0 0 0 33.255 -33.254zm-63.488 0a30.232 30.232 0 1 1 30.228 30.233 30.233 30.233 0 0 1 -30.233 -30.231z" class="cls-1" data-name="Forma 1"/>
</svg>
